<?xml version="1.0" encoding="UTF-8" standalone="no"?>
<!DOCTYPE svg PUBLIC "-//W3C//DTD SVG 1.1//EN" "http://www.w3.org/Graphics/SVG/1.1/DTD/svg11.dtd">
<svg xmlns="http://www.w3.org/2000/svg" version="1.1" viewBox="0.00 0.00 1408.00 768.00">
<path fill="#2455e9" d="
  M 489.16 0.00
  Q 498.96 2.36 499.16 11.63
  Q 499.30 18.54 499.32 26.80
  A 2.88 2.84 -73.0 0 0 500.54 29.13
  C 517.87 41.18 534.90 54.00 549.01 63.74
  C 561.37 72.28 570.42 79.28 584.98 89.64
  Q 592.49 95.00 607.08 105.55
  Q 612.79 109.69 614.07 112.34
  Q 616.87 118.13 614.01 124.26
  C 610.21 132.37 601.75 130.78 594.38 130.78
  A 0.58 0.58 0.0 0 0 593.80 131.36
  L 593.80 218.07
  A 0.79 0.79 0.0 0 0 594.59 218.86
  Q 611.21 218.93 631.02 219.08
  Q 640.11 219.15 643.50 226.15
  Q 644.90 229.05 644.89 235.62
  Q 644.82 281.36 644.96 289.39
  Q 645.07 295.88 644.03 298.22
  Q 641.80 303.24 638.67 305.21
  C 631.26 309.86 625.66 313.43 620.92 320.22
  C 611.95 333.05 613.23 348.76 614.89 364.43
  Q 619.05 403.64 647.51 679.16
  Q 649.13 694.82 651.41 701.54
  C 658.26 721.75 674.76 736.00 695.38 741.06
  C 703.17 742.98 711.86 743.00 723.99 743.82
  Q 814.58 749.91 916.50 761.73
  Q 930.64 763.37 957.02 766.61
  Q 957.58 766.68 963.46 767.38
  Q 963.50 767.38 963.46 767.38
  L 958.79 768.00
  L 12.03 768.00
  Q 9.22 767.82 6.50 767.39
  Q 6.45 767.38 6.39 767.38
  C 9.48 767.38 12.21 766.91 13.74 766.72
  Q 142.10 750.76 267.75 742.76
  C 297.01 740.90 320.51 719.64 324.71 690.50
  Q 325.79 683.01 327.45 666.75
  Q 333.25 609.82 356.05 391.01
  Q 358.26 369.77 359.61 355.13
  C 360.97 340.43 358.85 324.64 348.07 314.19
  Q 344.60 310.82 336.99 306.53
  Q 332.13 303.79 329.85 298.72
  Q 328.56 295.84 328.57 288.11
  Q 328.61 238.91 328.59 238.27
  Q 328.25 229.16 330.07 226.08
  C 334.07 219.31 338.69 218.65 346.85 218.83
  Q 357.83 219.07 378.97 218.87
  A 0.71 0.70 -0.4 0 0 379.67 218.17
  L 379.67 131.47
  A 0.68 0.68 0.0 0 0 378.98 130.79
  C 374.99 130.84 368.48 131.61 365.20 129.91
  C 357.80 126.06 355.53 115.90 361.50 109.70
  C 364.05 107.05 367.17 105.30 370.65 102.79
  Q 415.91 70.08 473.67 28.79
  A 1.57 1.56 72.8 0 0 474.33 27.53
  Q 474.44 20.63 474.27 13.51
  Q 474.00 2.78 484.16 0.00
  L 489.16 0.00
  Z
  M 517.05 105.60
  A 0.34 0.34 0.0 0 0 517.35 105.79
  L 563.75 105.79
  A 0.34 0.34 0.0 0 0 563.95 105.17
  L 493.07 54.04
  A 0.34 0.34 0.0 0 0 492.57 54.46
  L 517.05 105.60
  Z
  M 439.91 131.16
  A 0.37 0.37 0.0 0 0 439.54 130.79
  L 405.20 130.79
  A 0.37 0.37 0.0 0 0 404.83 131.16
  L 404.83 218.68
  A 0.37 0.37 0.0 0 0 405.20 219.05
  L 439.54 219.05
  A 0.37 0.37 0.0 0 0 439.91 218.68
  L 439.91 131.16
  Z
  M 508.76 131.40
  A 0.66 0.66 0.0 0 0 508.10 130.74
  L 465.58 130.74
  A 0.66 0.66 0.0 0 0 464.92 131.40
  L 464.92 218.44
  A 0.66 0.66 0.0 0 0 465.58 219.10
  L 508.10 219.10
  A 0.66 0.66 0.0 0 0 508.76 218.44
  L 508.76 131.40
  Z
  M 568.72 131.20
  A 0.47 0.47 0.0 0 0 568.25 130.73
  L 534.07 130.73
  A 0.47 0.47 0.0 0 0 533.60 131.20
  L 533.60 218.54
  A 0.47 0.47 0.0 0 0 534.07 219.01
  L 568.25 219.01
  A 0.47 0.47 0.0 0 0 568.72 218.54
  L 568.72 131.20
  Z
  M 379.69 244.57
  A 0.41 0.41 0.0 0 0 379.28 244.16
  L 354.18 244.16
  A 0.41 0.41 0.0 0 0 353.77 244.57
  L 353.77 281.37
  A 0.41 0.41 0.0 0 0 354.18 281.78
  L 379.28 281.78
  A 0.41 0.41 0.0 0 0 379.69 281.37
  L 379.69 244.57
  Z
  M 568.72 244.54
  A 0.41 0.41 0.0 0 0 568.31 244.13
  L 517.75 244.13
  A 0.41 0.41 0.0 0 0 517.34 244.54
  L 517.34 281.42
  A 0.41 0.41 0.0 0 0 517.75 281.83
  L 568.31 281.83
  A 0.41 0.41 0.0 0 0 568.72 281.42
  L 568.72 244.54
  Z
  M 619.78 244.69
  A 0.51 0.51 0.0 0 0 619.27 244.18
  L 594.35 244.18
  A 0.51 0.51 0.0 0 0 593.84 244.69
  L 593.84 281.25
  A 0.51 0.51 0.0 0 0 594.35 281.76
  L 619.27 281.76
  A 0.51 0.51 0.0 0 0 619.78 281.25
  L 619.78 244.69
  Z
  M 587.67 319.73
  C 562.87 320.32 537.69 324.49 514.88 331.95
  C 480.74 343.11 448.89 363.39 428.37 392.62
  C 408.84 420.43 398.35 452.73 394.13 486.29
  Q 392.47 499.50 391.14 514.24
  A 0.38 0.38 0.0 0 0 391.82 514.50
  Q 397.90 506.69 405.15 499.64
  Q 420.68 484.55 439.39 472.14
  Q 456.02 461.11 461.86 457.85
  C 491.54 441.27 517.93 426.06 542.74 405.01
  C 549.54 399.24 555.80 392.53 561.51 385.76
  C 570.18 375.47 577.06 364.07 581.40 350.86
  Q 586.32 335.85 587.98 320.06
  A 0.30 0.30 0.0 0 0 587.67 319.73
  Z
  M 594.31 436.10
  A 0.20 0.20 0.0 0 0 593.94 436.09
  C 585.94 455.80 573.98 472.17 557.73 487.42
  C 551.36 493.39 544.47 499.33 537.45 504.21
  Q 525.45 512.55 507.54 523.79
  C 479.12 541.63 454.23 561.47 435.96 587.44
  Q 415.20 616.93 410.92 653.18
  Q 407.76 679.82 416.37 708.69
  C 419.50 719.18 425.61 729.16 432.29 736.83
  A 2.58 2.58 0.0 0 0 434.29 737.73
  L 498.80 737.08
  A 0.31 0.30 90.0 0 0 499.10 736.77
  Q 499.18 685.92 499.10 652.54
  C 499.04 628.85 520.32 613.29 542.87 620.14
  C 555.65 624.03 564.94 636.34 565.63 649.76
  Q 565.69 650.95 565.69 737.26
  A 0.46 0.45 1.3 0 0 566.13 737.71
  L 623.95 739.30
  A 0.48 0.48 0.0 0 0 624.44 738.77
  Q 616.90 664.16 610.36 595.22
  Q 609.12 582.15 595.06 439.80
  Q 594.85 437.65 594.31 436.10
  Z"
/>
</svg>
